<?xml version="1.0" standalone="no"?>
<!DOCTYPE svg PUBLIC "-//W3C//DTD SVG 20010904//EN"
 "http://www.w3.org/TR/2001/REC-SVG-20010904/DTD/svg10.dtd">
<svg version="1.0" xmlns="http://www.w3.org/2000/svg"
 width="360.000000pt" height="361.000000pt" viewBox="0 0 360.000000 361.000000"
 preserveAspectRatio="xMidYMid meet">

<g transform="translate(0.000000,361.000000) scale(0.100000,-0.100000)"
fill="#000000" stroke="none">
<path d="M1555 3599 c-251 -34 -583 -165 -792 -312 -132 -92 -372 -337 -459
-467 -108 -162 -195 -354 -252 -555 -44 -152 -47 -183 -47 -460 0 -303 6 -344
76 -559 153 -469 495 -860 933 -1071 290 -139 535 -185 901 -170 187 8 264 21
440 80 347 114 625 304 844 576 175 216 282 430 359 718 l36 136 1 280 c0 310
-3 335 -72 550 -133 414 -386 746 -745 979 -178 116 -418 214 -623 255 -118
23 -486 36 -600 20z m573 -238 c259 -55 521 -188 727 -369 257 -226 457 -582
510 -907 23 -136 23 -426 1 -560 -21 -126 -70 -272 -142 -425 l-57 -119 -56
48 c-120 104 -324 214 -593 321 l-156 62 -87 -71 c-95 -76 -208 -140 -294
-165 -75 -22 -287 -22 -362 0 -86 25 -199 89 -293 165 l-86 69 -122 -46 c-151
-56 -387 -169 -488 -232 -41 -25 -103 -70 -136 -98 l-62 -52 -50 106 c-62 130
-113 282 -143 422 -33 152 -33 448 0 600 46 214 124 403 236 570 241 359 587
592 1020 686 102 22 126 24 325 20 164 -4 237 -9 308 -25z"/>
<path d="M1705 2973 c-100 -13 -230 -71 -331 -146 -115 -87 -218 -244 -261
-397 -27 -99 -24 -317 5 -428 83 -308 275 -555 505 -649 84 -35 218 -43 303
-18 192 55 388 250 494 493 64 145 84 236 84 392 1 144 -9 203 -51 305 -75
179 -232 337 -404 406 -97 38 -240 56 -344 42z"/>
</g>
</svg>
